<?xml version="1.0" standalone="no"?>
<!DOCTYPE svg PUBLIC "-//W3C//DTD SVG 20010904//EN"
 "http://www.w3.org/TR/2001/REC-SVG-20010904/DTD/svg10.dtd">
<svg version="1.0" xmlns="http://www.w3.org/2000/svg"
 width="2000.000000pt" height="1000.000000pt" viewBox="0 0 2000.000000 1000.000000"
 preserveAspectRatio="xMidYMid meet">
<metadata>
Created by potrace 1.15, written by Peter Selinger 2001-2017
</metadata>
<g transform="translate(0.000000,1000.000000) scale(0.100000,-0.100000)"
fill="#000000" stroke="none">
<path d="M6460 9260 c-8 -5 -27 -10 -43 -10 -15 0 -53 -13 -84 -30 -31 -16
-65 -30 -77 -30 -25 0 -94 -60 -121 -105 -10 -16 -33 -43 -51 -58 -19 -16 -34
-38 -34 -49 0 -11 -30 -51 -70 -92 -38 -40 -70 -77 -70 -83 0 -7 -10 -24 -22
-40 -30 -37 -53 -86 -72 -148 -8 -27 -22 -68 -31 -90 -15 -33 -18 -71 -18
-216 1 -186 6 -211 52 -253 12 -11 21 -25 21 -32 0 -7 16 -33 36 -59 19 -26
55 -88 80 -138 40 -83 73 -127 94 -127 15 0 -18 120 -50 181 -96 186 -131 323
-111 434 13 69 32 99 79 120 62 29 100 63 129 116 22 40 39 56 86 79 32 17 63
30 69 30 6 0 34 15 62 34 28 19 65 37 82 39 17 3 45 12 63 22 28 14 40 15 83
5 54 -13 62 -10 63 23 0 30 48 34 118 11 58 -18 88 -42 120 -94 45 -73 77 -96
110 -78 11 6 23 6 30 0 21 -17 67 -21 67 -6 0 23 15 16 35 -18 10 -18 39 -51
63 -73 70 -64 98 -112 96 -168 -1 -40 4 -58 32 -99 19 -27 34 -56 34 -63 0 -7
7 -18 15 -25 22 -18 53 -111 70 -208 14 -83 42 -162 57 -162 16 0 19 -87 5
-122 -8 -20 -20 -61 -27 -91 -6 -31 -18 -61 -26 -68 -9 -7 -24 -30 -35 -51
-11 -21 -25 -38 -32 -38 -7 0 -27 16 -46 35 -23 24 -41 35 -62 35 -32 0 -37
-11 -14 -30 20 -17 19 -37 -2 -44 -10 -3 -42 -29 -71 -56 -30 -28 -57 -50 -62
-50 -18 0 -15 -36 4 -51 19 -16 19 -18 3 -69 -22 -67 -21 -80 2 -80 10 0 42
-7 70 -17 74 -23 113 -9 176 64 49 57 50 59 48 120 0 35 3 63 8 63 5 0 15 12
24 28 8 15 26 41 40 57 l25 30 0 -45 c0 -25 0 -60 0 -79 0 -18 -4 -40 -8 -48
-8 -13 -11 -13 -25 1 -8 9 -23 13 -31 10 -18 -7 -21 -20 -6 -29 6 -3 10 -1 10
5 0 7 5 10 12 8 6 -2 12 -22 13 -44 1 -22 8 -51 18 -64 29 -41 0 -55 -39 -19
-29 27 -51 16 -31 -14 23 -35 28 -104 16 -191 -6 -45 -15 -85 -19 -91 -13 -17
-18 -55 -9 -55 15 0 68 60 89 102 28 52 78 215 96 305 8 43 28 125 45 183 17
58 40 143 51 190 25 111 28 120 39 120 18 0 38 -67 45 -151 4 -46 11 -93 15
-104 14 -34 8 172 -7 218 -30 96 -37 147 -24 177 16 38 35 44 61 17 33 -35 47
-69 60 -142 18 -103 -7 -348 -36 -359 -8 -3 -21 -31 -30 -63 -9 -32 -23 -77
-31 -100 -12 -32 -13 -47 -4 -63 8 -15 8 -30 1 -51 -6 -16 -17 -72 -26 -125
-25 -143 -71 -306 -92 -322 -23 -18 -129 -8 -153 13 -10 9 -24 13 -33 9 -20
-7 -137 47 -137 65 0 8 8 20 18 27 9 7 12 14 6 14 -6 0 -19 -9 -29 -20 -21
-23 -95 -49 -150 -52 -45 -2 -105 28 -105 53 0 22 -20 39 -47 39 -12 0 -27 8
-32 19 -6 10 -24 24 -41 31 -31 13 -43 50 -15 50 20 0 19 7 -5 37 -18 23 -18
27 -3 65 19 47 10 58 -48 58 -39 0 -52 10 -64 48 -5 19 0 30 32 57 21 19 45
34 53 35 9 0 26 7 39 17 l24 16 -34 18 c-49 26 -72 23 -97 -11 -19 -25 -29
-30 -65 -30 -29 0 -54 8 -79 25 -20 14 -48 25 -60 25 -50 0 -69 64 -23 76 14
3 25 13 25 22 0 23 -33 102 -43 102 -5 0 -5 -5 -1 -12 13 -21 4 -100 -15 -124
-15 -19 -17 -32 -11 -66 10 -52 4 -68 -25 -68 -26 0 -43 -33 -27 -53 6 -7 27
-21 47 -31 31 -17 41 -18 69 -8 46 17 87 15 116 -5 39 -27 48 -39 56 -67 3
-14 10 -26 14 -26 4 0 10 -9 13 -20 6 -22 -3 -26 -19 -10 -5 5 -43 13 -84 16
-48 4 -92 15 -122 30 -44 22 -78 23 -78 3 0 -5 -17 -17 -38 -28 -43 -22 -102
-83 -127 -131 -9 -17 -21 -30 -26 -28 -6 2 -20 33 -33 68 -30 84 -73 180 -81
180 -17 0 -97 -65 -105 -85 -18 -48 -113 -189 -144 -213 -17 -14 -57 -52 -88
-84 -44 -45 -58 -66 -58 -89 0 -16 -4 -37 -9 -47 -5 -9 -14 -38 -20 -63 -6
-26 -14 -55 -17 -65 -6 -16 -3 -15 20 5 14 14 30 39 34 55 11 43 34 39 45 -7
14 -57 -22 -135 -100 -218 -124 -131 -352 -299 -407 -299 -34 0 -66 29 -76 70
-4 19 -20 73 -34 120 -38 126 -44 206 -18 255 25 49 68 95 87 95 30 0 35 33
50 330 3 53 9 111 15 129 5 18 15 110 22 203 13 189 16 198 92 245 94 60 226
198 226 238 0 17 -59 46 -132 66 -23 6 -94 37 -158 70 -68 34 -149 67 -200 79
-73 19 -106 33 -164 72 -6 4 -13 33 -17 65 -4 32 -11 79 -14 105 -5 33 -2 63
10 102 17 54 17 57 -2 103 -11 27 -19 64 -18 83 2 19 -2 48 -9 65 -19 43 -101
158 -161 224 -28 31 -61 72 -73 91 -11 19 -56 69 -99 111 -60 59 -90 81 -129
93 -29 9 -60 26 -69 36 -10 11 -24 20 -32 20 -7 0 -43 16 -80 35 -37 19 -80
35 -96 35 -15 0 -38 5 -49 11 -12 6 -44 12 -72 13 -28 1 -67 9 -86 18 -112 51
-221 46 -415 -21 -208 -72 -251 -92 -280 -135 -14 -20 -25 -45 -25 -55 0 -25
-41 -84 -67 -96 -24 -10 -33 -33 -33 -84 0 -20 -12 -53 -29 -81 -16 -25 -32
-65 -36 -88 -4 -23 -18 -59 -32 -79 -44 -64 -51 -90 -40 -139 6 -24 14 -44 19
-44 4 0 25 -16 47 -35 21 -19 43 -35 50 -35 6 0 28 -16 49 -35 56 -50 89 -60
127 -40 29 16 32 16 85 -9 30 -14 107 -41 170 -60 63 -20 136 -43 163 -51 52
-17 71 -13 64 15 -3 12 2 20 14 23 17 5 205 -9 255 -19 36 -6 108 -80 141
-143 l31 -61 -19 -62 c-18 -58 -28 -216 -15 -237 7 -10 42 -148 50 -193 4 -23
1 -49 -7 -70 -18 -43 -102 -127 -145 -145 -31 -13 -37 -12 -68 6 -31 19 -45
20 -137 14 -82 -4 -109 -3 -132 9 -17 9 -49 19 -72 23 -37 6 -43 4 -57 -17
-23 -35 -46 -168 -46 -260 0 -46 9 -123 20 -172 26 -116 26 -190 0 -240 l-19
-39 43 -111 c24 -61 116 -286 204 -501 87 -214 208 -511 267 -660 l107 -269
-23 -16 c-13 -8 -32 -23 -42 -33 -10 -10 -20 -17 -22 -15 -5 6 -122 272 -148
338 -30 75 -122 278 -130 286 -3 3 -3 -4 0 -17 4 -14 2 -20 -4 -16 -14 9 -23
56 -11 63 12 7 4 35 -34 116 -18 38 -34 64 -38 59 -3 -6 -17 14 -31 42 -60
120 -108 223 -113 242 -3 11 -4 1 -2 -22 3 -36 1 -43 -17 -49 -25 -8 -47 18
-47 54 0 19 -4 23 -19 19 -14 -3 -18 -1 -14 10 3 7 2 13 -3 12 -26 -4 -54 15
-54 36 0 13 -5 25 -11 27 -5 2 -11 10 -13 18 -2 8 -16 44 -33 80 -31 66 -89
196 -136 306 -15 34 -27 69 -27 78 0 9 -7 31 -16 47 -16 32 -7 59 21 59 6 0
31 14 55 31 60 44 40 59 -37 28 -32 -13 -67 -29 -78 -35 -11 -7 -39 -17 -62
-23 -36 -10 -46 -9 -77 10 -20 11 -36 24 -36 27 0 4 -11 12 -25 19 -14 6 -25
7 -25 2 0 -5 -4 -9 -10 -9 -5 0 -10 6 -10 13 0 6 -14 18 -30 25 -33 15 -39 42
-15 62 12 10 18 10 29 1 19 -16 30 2 22 35 -5 17 -12 24 -21 20 -8 -3 -25 -1
-37 4 -20 8 -18 9 17 11 39 1 39 2 10 9 -24 5 -27 8 -13 14 9 4 22 4 29 0 8
-4 9 -3 5 5 -4 7 -17 11 -29 9 -14 -2 -21 2 -19 10 1 7 -6 15 -15 18 -23 8
-66 27 -255 118 -86 42 -159 76 -161 76 -3 0 -43 18 -89 39 -86 40 -133 46
-153 18 -5 -8 -21 -18 -35 -22 -46 -15 -80 -47 -80 -76 0 -16 23 -81 51 -146
29 -65 78 -183 110 -263 77 -194 105 -249 132 -259 17 -7 26 -4 38 11 16 21
16 21 49 -11 18 -17 39 -31 46 -31 7 0 14 -10 16 -22 2 -17 12 -25 38 -29 19
-4 31 -7 25 -8 -5 0 7 -12 28 -26 20 -14 42 -23 47 -20 12 7 59 -26 60 -41 0
-7 9 -22 19 -35 16 -19 22 -22 32 -11 18 17 32 15 55 -6 10 -10 35 -24 54 -32
19 -7 42 -20 50 -27 40 -36 64 -53 77 -53 7 0 13 -4 13 -10 0 -5 11 -10 25
-10 14 0 25 -4 25 -10 0 -5 8 -10 19 -10 27 0 47 -26 32 -44 -9 -11 -9 -15 1
-19 9 -4 7 -11 -9 -25 l-22 -19 37 -35 c49 -47 415 -317 500 -370 67 -41 132
-95 132 -109 0 -17 403 -914 556 -1238 30 -62 54 -115 54 -116 0 -2 22 -49 49
-106 27 -57 95 -203 151 -324 56 -121 139 -296 182 -390 l80 -170 -5 -155
c-10 -263 58 -376 -565 950 -124 263 -340 715 -442 925 -62 127 -144 295 -182
375 -38 80 -71 147 -73 149 -2 2 -46 -19 -98 -47 -59 -32 -98 -48 -106 -42
-14 8 4 20 129 88 30 17 55 35 55 40 0 13 -50 51 -485 370 -25 18 -65 48 -90
68 -92 71 -216 169 -260 204 -25 20 -72 56 -104 80 -72 52 -89 66 -134 106
-43 38 -38 62 19 88 32 14 38 21 28 32 -6 8 -22 14 -34 14 -25 0 -41 15 -46
44 -2 11 -11 21 -19 23 -13 4 -13 3 -1 -5 11 -8 8 -11 -14 -14 -24 -2 -40 -18
-85 -85 -30 -45 -65 -92 -77 -105 -20 -22 -56 -92 -57 -113 -1 -5 -11 -16 -24
-23 -15 -8 -21 -19 -18 -30 5 -15 -3 -17 -52 -18 -107 -2 -118 -4 -103 -13 7
-5 10 -14 7 -20 -4 -6 -11 -9 -16 -6 -4 3 -13 -1 -19 -9 -6 -8 -32 -17 -57
-21 -35 -5 -44 -10 -40 -21 4 -12 1 -14 -14 -9 -11 4 -20 2 -20 -4 0 -6 -6 -8
-14 -5 -8 3 -17 1 -21 -5 -3 -6 -17 -11 -31 -11 -13 0 -24 -4 -24 -10 0 -5
-17 -17 -37 -27 -21 -9 -42 -23 -48 -29 -5 -7 -24 -15 -42 -19 -27 -5 -34 -2
-56 27 -28 39 -169 274 -219 368 -55 101 -81 110 -481 165 -152 21 -194 24
-222 15 -19 -6 -38 -9 -43 -6 -4 3 -36 7 -70 11 -34 3 -77 14 -95 25 -23 14
-95 29 -230 50 -108 16 -206 30 -218 30 -11 0 -34 -13 -50 -29 -23 -24 -29
-38 -29 -73 0 -54 13 -81 142 -308 58 -102 143 -255 190 -340 47 -85 107 -193
133 -240 189 -337 301 -556 312 -611 4 -19 -1 -34 -14 -49 -18 -18 -21 -19
-33 -5 -8 9 -17 12 -24 7 -6 -5 -23 -12 -38 -16 -16 -3 -28 -10 -28 -14 0 -4
-20 -6 -45 -5 -40 2 -47 0 -55 -21 -12 -34 -28 -40 -57 -25 -19 10 -28 10 -43
1 -11 -7 -27 -12 -35 -12 -9 0 -18 -6 -21 -14 -3 -8 -22 -22 -42 -31 -42 -18
-95 -47 -102 -56 -11 -13 -55 -18 -67 -7 -10 8 -13 6 -13 -6 0 -9 -5 -16 -11
-16 -5 0 -8 -4 -5 -9 3 -5 -9 -15 -27 -22 -17 -7 -35 -18 -40 -23 -4 -7 -11
-6 -18 4 -8 11 -12 12 -16 3 -2 -7 -11 -13 -18 -13 -21 0 -25 -25 -25 -170 0
-116 2 -139 16 -144 8 -3 24 -1 34 4 10 6 30 10 44 10 14 0 28 5 31 10 3 6 19
10 35 10 37 0 109 16 175 40 28 9 63 18 78 19 48 2 149 31 165 48 11 10 26 13
49 10 20 -4 31 -2 28 4 -4 5 2 9 12 9 10 0 36 9 58 20 22 11 48 20 60 20 11 0
28 7 39 15 13 10 24 11 37 5 23 -13 39 -13 39 0 0 6 -7 10 -15 10 -8 0 -12 6
-9 14 4 12 12 11 45 -2 34 -13 42 -13 49 -2 10 17 47 23 55 10 3 -6 36 -10 73
-10 75 0 106 -15 124 -59 35 -86 68 -189 68 -209 0 -14 19 -41 49 -71 40 -41
64 -55 152 -86 57 -21 120 -45 139 -55 39 -19 172 -64 330 -111 79 -23 132
-32 216 -36 132 -6 119 9 163 -180 32 -136 121 -587 121 -615 0 -12 -29 -26
-110 -53 -74 -25 -116 -44 -128 -60 -11 -14 -24 -57 -31 -100 -12 -71 -11 -78
9 -120 12 -24 57 -95 102 -157 44 -62 109 -156 144 -209 35 -53 70 -99 79
-102 8 -4 56 2 107 13 51 10 203 37 338 59 135 22 342 57 460 77 118 19 265
44 325 54 l110 18 28 -27 c23 -21 27 -32 22 -56 -3 -16 -14 -100 -24 -185 -20
-165 -63 -460 -86 -600 -8 -47 -19 -119 -25 -160 -18 -136 -11 -125 -105 -154
-46 -14 -85 -32 -87 -38 -3 -7 -1 -35 3 -63 7 -43 15 -57 59 -97 31 -29 50
-55 50 -69 0 -12 -11 -76 -24 -143 -58 -292 -57 -291 -45 -339 23 -94 115
-163 283 -211 50 -15 114 -26 147 -26 57 0 60 -1 74 -33 11 -25 65 -258 65
-282 0 -3 263 -5 585 -5 322 0 585 2 585 5 0 18 -32 77 -59 107 -25 28 -35 54
-46 113 -19 98 -20 92 13 100 55 12 154 102 175 157 10 28 41 -21 47 -75 5
-50 6 -52 35 -50 17 1 42 4 56 8 25 7 29 1 113 -166 48 -95 92 -179 98 -186 8
-10 82 -13 330 -13 l320 0 -47 88 c-26 48 -49 103 -52 122 l-4 35 19 -24 c10
-12 43 -68 73 -122 l53 -99 93 0 c51 0 93 2 93 5 0 3 -21 44 -46 91 -25 47
-43 88 -40 91 14 14 35 -12 79 -96 l48 -91 100 0 99 0 -50 100 c-27 55 -50
104 -50 110 0 29 21 -1 70 -100 l54 -110 1743 0 c959 0 1743 2 1743 4 0 8
-175 115 -229 140 -30 13 -84 32 -120 42 -36 9 -76 26 -88 37 -19 17 -30 19
-70 12 -26 -4 -64 -8 -82 -9 -32 -1 -36 2 -42 32 -5 27 -1 46 23 90 34 65 32
83 -13 154 -73 113 -241 230 -380 263 -94 22 -268 30 -374 16 -228 -30 -443
-120 -610 -253 -32 -26 -63 -44 -67 -40 -17 17 -258 598 -253 611 3 7 8 11 11
9 3 -3 22 -2 42 3 78 19 454 101 592 130 80 17 195 35 256 39 79 6 126 15 160
30 56 24 401 85 545 96 l95 6 130 -92 c137 -99 714 -533 1359 -1023 l390 -296
1505 0 c1325 0 1503 1 1486 14 -11 8 -32 15 -47 15 -36 0 -409 159 -409 174 0
7 24 66 53 132 l53 119 366 104 366 104 118 -115 117 -115 -27 -69 c-35 -88
-106 -207 -173 -291 -29 -37 -51 -68 -49 -70 2 -2 22 3 45 11 35 12 40 12 30
0 -9 -11 -6 -14 18 -14 19 0 39 10 58 30 16 16 35 30 44 30 10 0 6 -9 -14 -30
l-29 -30 286 0 285 0 12 67 c7 38 23 100 35 138 17 55 23 65 28 47 4 -14 2
-20 -4 -16 -7 5 -9 -3 -4 -22 4 -18 3 -24 -2 -16 -12 18 -25 -31 -16 -60 4
-15 3 -18 -6 -13 -10 6 -12 1 -8 -18 3 -16 1 -24 -5 -20 -5 3 -7 -8 -2 -28 4
-25 3 -30 -4 -19 -12 17 -15 1 -5 -24 6 -15 200 -16 2100 -16 l2094 0 0 1973
0 1973 -66 77 c-74 85 -134 133 -414 332 -212 150 -300 220 -458 368 -96 90
-257 205 -509 364 -72 45 -86 60 -122 122 -23 39 -62 87 -86 108 -28 23 -47
48 -51 67 -10 48 -45 158 -61 191 -18 37 -103 164 -114 170 -4 3 17 -42 47
-99 51 -98 104 -226 104 -253 0 -20 -144 63 -154 89 -29 74 -86 185 -100 197
-14 12 -16 11 -16 -8 0 -12 6 -34 14 -49 18 -36 63 -219 81 -329 22 -135 56
-589 75 -993 9 -198 16 -301 35 -535 3 -33 9 -75 14 -93 13 -45 6 -58 -40 -76
-97 -39 -755 -1 -1084 63 -41 7 -41 7 -69 -38 -16 -25 -61 -73 -102 -106 -78
-64 -165 -101 -258 -110 -73 -7 -121 -43 -151 -112 -28 -63 -29 -67 -13 -57 7
4 8 3 4 -5 -4 -6 -11 -9 -16 -6 -5 3 -12 -5 -15 -17 -12 -38 -44 -105 -77
-160 -17 -29 -51 -91 -76 -138 -25 -47 -50 -88 -55 -91 -5 -3 -8 -9 -8 -13 3
-19 0 -29 -6 -23 -3 4 -15 -1 -26 -10 -10 -10 -3 6 16 35 20 29 41 68 48 87 7
19 16 35 20 35 4 0 9 12 12 27 l5 27 -20 -25 c-55 -70 -138 -205 -139 -228 0
-16 -3 -20 -6 -11 -8 20 -25 30 -38 22 -15 -9 -35 -11 -35 -3 0 4 6 13 13 21
10 12 9 12 -6 1 -11 -9 -15 -21 -12 -35 5 -19 5 -19 -7 -5 -10 13 -17 14 -32
5 -14 -8 -20 -8 -23 2 -3 6 -10 9 -16 5 -19 -12 -38 -12 -31 -1 4 6 -1 8 -11
6 -19 -3 -65 -75 -220 -343 -54 -93 -145 -247 -201 -341 -73 -119 -108 -188
-118 -230 -8 -32 -26 -111 -41 -174 -50 -214 -124 -462 -156 -521 -10 -20 -19
-43 -19 -51 0 -20 70 -163 114 -230 40 -64 38 -66 -38 -49 -38 9 -116 73 -116
96 0 6 -9 27 -20 48 -39 73 -53 169 -64 450 -2 51 -12 65 -66 94 -67 35 -159
103 -179 132 -13 18 -30 72 -42 138 -30 156 -31 157 -20 173 8 12 12 12 29 -3
10 -9 22 -14 25 -10 4 3 7 -1 7 -10 0 -9 5 -17 10 -17 15 0 12 7 -20 44 -45
50 -61 98 -62 184 -1 72 20 167 43 198 5 6 12 44 15 85 7 79 26 124 92 216 12
17 22 33 22 36 0 4 57 94 78 122 66 91 91 136 159 285 l38 85 1 360 c0 198 4
387 8 420 l8 60 -32 -35 c-56 -63 -106 -146 -140 -231 -33 -85 -54 -122 -43
-78 3 13 3 21 -1 18 -10 -9 -56 -150 -56 -172 0 -13 -5 -17 -15 -13 -14 5 -31
-38 -40 -98 -1 -12 -6 -30 -11 -41 -5 -11 -9 -43 -8 -72 0 -28 -4 -51 -10 -50
-5 1 -12 -9 -16 -23 -6 -22 -7 -21 -13 15 -4 22 -4 58 -1 80 l6 40 -20 -24
-20 -25 5 30 6 29 -29 -26 c-30 -28 -54 -28 -54 -2 0 9 -6 13 -14 10 -8 -3
-17 1 -20 9 -3 9 -10 12 -16 9 -5 -3 -10 2 -10 11 0 16 -1 16 -16 -2 -15 -19
-15 -18 -11 4 3 12 1 20 -4 16 -15 -9 -10 13 7 27 19 16 54 83 54 104 0 21
-13 19 -44 -10 -14 -13 -33 -22 -41 -19 -19 8 -19 14 0 40 9 14 12 30 7 48
l-7 27 -43 -40 c-44 -41 -59 -41 -19 0 12 13 30 35 39 49 8 14 36 48 62 76 45
51 62 79 31 54 -9 -7 -19 -10 -23 -6 -4 4 1 14 11 21 11 7 14 16 8 19 -5 4
-18 -8 -28 -25 -18 -30 -85 -74 -97 -62 -3 3 -14 0 -23 -7 -10 -7 -2 2 18 21
20 19 44 48 54 64 10 17 29 41 42 55 14 14 39 44 56 67 18 22 64 78 104 124
40 46 70 85 67 88 -2 3 -18 -10 -34 -27 -16 -18 -34 -32 -41 -32 -7 0 -2 12
12 27 27 31 4 17 -43 -26 -16 -14 -28 -20 -28 -14 0 7 36 45 81 85 44 40 103
104 131 142 51 70 134 223 156 287 19 55 13 69 -9 21 -10 -24 -16 -49 -12 -55
3 -6 1 -7 -5 -3 -12 7 -20 -1 -60 -60 -38 -57 -54 -76 -81 -99 l-24 -20 11 20
c5 11 22 31 37 45 27 25 115 153 115 168 0 4 8 23 19 42 10 19 23 51 30 71 10
31 20 40 63 58 58 24 74 26 81 9 3 -8 6 -6 6 4 1 10 11 22 22 29 22 11 22 10
15 -50 -4 -37 -3 -61 3 -61 5 0 4 -10 -2 -24 -7 -14 -14 -20 -18 -15 -3 5 -13
-18 -22 -51 -10 -33 -21 -60 -25 -60 -4 0 -9 -11 -10 -25 -1 -14 -8 -35 -16
-48 -8 -12 -16 -26 -17 -32 -6 -40 -41 -90 -53 -78 -3 4 -6 -2 -7 -13 -2 -57
-6 -72 -21 -87 -9 -9 -22 -34 -28 -54 -6 -21 -20 -54 -31 -74 -10 -21 -17 -44
-13 -52 3 -8 1 -18 -5 -22 -6 -3 -11 -16 -11 -28 0 -12 -7 -31 -15 -41 -17
-22 -19 -36 -7 -36 5 0 17 17 27 38 24 46 30 62 16 42 -8 -11 -11 -11 -11 -2
0 7 6 15 14 18 9 3 12 12 9 21 -4 9 -2 14 3 10 12 -7 174 305 174 336 0 13 -6
29 -12 36 -9 9 -9 12 -1 7 16 -9 60 33 68 64 6 24 5 24 -9 6 -9 -11 -16 -15
-16 -9 0 7 5 15 10 18 6 4 8 16 4 28 -6 20 -5 21 7 4 13 -16 14 -15 16 10 0
15 9 33 19 40 15 11 15 15 3 30 -13 16 -12 17 2 5 14 -11 20 -9 36 11 10 13
27 44 37 68 10 24 27 63 37 86 11 24 19 48 19 53 0 6 5 8 11 5 6 -4 16 0 22 9
10 13 11 4 9 -46 -3 -58 -2 -61 12 -43 14 19 16 19 32 3 11 -11 17 -33 17 -63
0 -31 3 -41 10 -33 6 9 7 7 4 -8 -8 -38 9 -50 27 -18 14 27 15 27 16 7 0 -13
5 -23 11 -23 7 0 9 -11 5 -30 -3 -19 -2 -29 4 -25 22 14 51 13 57 0 3 -8 11
-15 18 -15 8 0 27 -11 43 -25 34 -29 40 -30 56 -12 6 7 10 10 9 8 -2 -2 2 -11
9 -18 16 -20 55 -115 79 -193 11 -36 29 -84 40 -107 13 -28 22 -74 26 -135 4
-59 9 -85 14 -73 6 16 8 13 8 -12 1 -18 -3 -33 -9 -33 -6 0 -10 -38 -10 -92 0
-107 -27 -248 -65 -349 -34 -88 -42 -86 -11 1 47 129 59 221 52 388 -6 143
-24 263 -47 304 -5 10 -9 27 -9 38 0 11 -4 20 -8 20 -4 0 -9 -39 -10 -87 -2
-49 -7 -101 -11 -118 -5 -16 -16 -84 -26 -150 -9 -66 -20 -141 -24 -167 -5
-26 -5 -51 -1 -55 4 -4 10 -37 13 -73 l6 -65 -14 40 c-8 22 -15 51 -16 65 -1
33 -40 -142 -45 -203 -2 -27 -8 -66 -13 -87 -5 -21 -6 -51 -3 -67 2 -15 1 -25
-4 -20 -4 4 -7 47 -7 95 0 56 -2 78 -7 62 -13 -40 -11 -7 4 93 8 50 17 122 20
158 3 37 8 80 11 95 14 70 -19 -30 -76 -231 -33 -115 -70 -244 -84 -285 -44
-138 -89 -285 -92 -300 -1 -8 -16 -49 -33 -90 -17 -41 -29 -65 -26 -52 7 35
-3 26 -25 -22 -10 -25 -24 -46 -29 -48 -5 -2 -14 -24 -18 -49 -5 -25 -21 -63
-35 -84 -20 -29 -27 -52 -27 -87 0 -49 -48 -211 -75 -252 -27 -41 -38 -170
-30 -381 4 -126 11 -209 19 -224 l13 -23 21 36 c25 42 28 85 10 149 -9 37 -9
49 6 78 9 18 21 61 25 94 16 114 88 287 186 450 69 115 191 347 205 390 11 37
41 83 73 117 34 36 88 119 82 128 -4 6 -1 9 5 8 6 -2 23 12 37 30 14 17 20 32
14 32 -6 0 -14 -7 -17 -15 -4 -8 -10 -13 -14 -10 -5 3 -12 0 -16 -6 -5 -8 -3
-9 7 -4 8 5 10 4 6 0 -4 -5 -14 -10 -22 -11 -21 -3 -8 20 25 45 34 25 41 48
10 31 -11 -6 -25 -8 -30 -5 -6 4 -9 1 -8 -7 2 -7 -3 -12 -9 -10 -7 1 -13 -3
-13 -9 0 -5 -4 -7 -10 -4 -5 3 -10 2 -10 -2 0 -11 -54 -43 -71 -43 -8 0 -5 6
7 15 16 13 16 14 2 9 -35 -12 -17 5 40 36 31 18 59 36 62 40 3 4 15 12 28 19
25 13 31 47 7 37 -12 -4 -13 -2 -3 14 13 20 28 17 28 -6 0 -19 4 -18 50 12 22
15 37 31 34 35 -3 5 -2 8 3 7 4 -2 27 16 49 39 23 24 45 43 48 43 3 0 5 -72 4
-160 -2 -88 -1 -160 2 -160 3 0 11 9 18 20 7 12 18 18 25 14 7 -4 9 -4 5 1 -4
4 -3 14 3 21 6 8 12 76 13 171 l3 157 67 62 c36 34 66 65 66 68 0 7 98 145
117 164 7 7 13 18 13 23 0 6 13 29 29 52 60 88 231 408 208 389 -14 -12 -16
-11 -14 7 0 11 4 18 7 16 14 -9 32 17 79 113 28 56 51 105 51 109 0 3 12 30
26 60 14 30 23 60 21 66 -2 6 -15 -13 -29 -43 -14 -30 -44 -94 -66 -142 -23
-47 -45 -89 -51 -92 -5 -4 15 46 45 109 39 83 57 136 64 186 6 39 13 75 16 80
3 5 8 31 10 57 3 26 16 90 29 142 13 52 29 119 35 149 6 30 15 60 20 66 6 7 6
30 1 56 l-8 44 -12 -45 c-8 -25 -26 -86 -41 -135 -15 -50 -31 -107 -34 -128
-3 -21 -10 -47 -16 -57 -9 -17 -30 -96 -35 -136 -2 -12 -10 -34 -18 -50 -8
-16 -25 -59 -37 -96 -13 -38 -27 -68 -32 -68 -5 0 -6 -4 -3 -10 6 -9 -21 -70
-31 -70 -2 0 1 10 7 22 7 13 13 33 15 45 1 12 18 64 38 115 45 119 98 327 101
398 1 30 5 78 9 105 7 55 3 49 -34 -48 -27 -69 -39 -70 -15 0 19 54 20 56 30
100 4 18 10 31 14 29 5 -4 10 24 14 91 1 11 5 19 9 17 4 -3 7 10 6 28 0 18 7
61 16 94 9 34 16 74 16 89 0 14 4 24 8 21 5 -3 9 0 10 7 23 271 23 268 62 295
l35 23 5 -26 5 -26 20 33 20 33 3 -37 c2 -20 -15 -102 -37 -186 -45 -165 -47
-179 -25 -142 l15 25 -6 -25 c-4 -14 -15 -43 -24 -65 -10 -22 -22 -66 -25 -98
-4 -31 -11 -55 -16 -52 -8 5 -23 -36 -15 -43 12 -12 60 63 50 78 -4 6 -1 9 7
8 9 -2 24 44 51 152 51 207 58 228 52 170 l-5 -45 14 40 13 40 -1 -42 c-1 -24
-4 -43 -8 -43 -5 0 -8 -4 -8 -10 0 -5 6 -10 13 -10 14 0 78 258 77 310 0 14 7
59 16 100 24 112 21 290 -6 428 -13 61 -27 112 -31 112 -5 0 -9 4 -9 9 0 5
-17 38 -37 72 -45 75 -179 194 -235 210 -49 13 -49 20 6 233 51 193 107 471
135 656 16 109 17 126 4 137 -13 10 -12 33 6 185 12 95 24 196 27 223 4 30 13
56 24 65 16 14 17 22 5 110 -7 52 -16 133 -19 179 -6 73 -5 82 8 72 26 -22 29
8 2 31 -13 13 -27 33 -30 44 -6 19 -3 21 20 16 17 -3 22 -7 14 -12 -9 -6 -3
-16 20 -36 17 -16 41 -39 53 -51 27 -29 41 -29 26 0 -10 17 -2 14 33 -15 25
-21 48 -35 51 -32 3 3 13 -8 22 -24 18 -29 53 -57 62 -49 2 3 -5 23 -16 45
-11 22 -18 42 -15 44 2 3 -2 21 -10 40 -9 20 -12 39 -8 43 4 5 1 5 -5 1 -8 -4
-13 -1 -13 7 0 22 -81 118 -129 152 -23 17 -63 47 -89 67 -31 25 -61 40 -91
44 -52 8 -91 29 -91 50 0 8 10 14 23 14 18 1 17 4 -13 19 -44 23 -94 36 -86
22 4 -5 -26 5 -66 23 -94 43 -221 86 -254 86 -14 0 -38 7 -55 15 -36 19 -114
34 -140 28 -16 -4 -10 -10 28 -28 63 -30 51 -31 -34 -1 -138 48 -142 48 -222
41 -42 -4 -110 -8 -151 -9 -42 -1 -81 -5 -88 -10 -6 -4 -12 -4 -12 1 0 4 -24
9 -52 9 -29 1 -68 4 -85 7 -29 6 -33 4 -39 -18 -7 -29 -42 -44 -55 -24 -7 11
-9 10 -9 -3 0 -12 -12 -19 -47 -24 -70 -9 -155 -40 -170 -60 -7 -9 -23 -23
-35 -30 -22 -13 -32 -17 -73 -34 -50 -20 -114 -53 -155 -80 -25 -16 -67 -41
-95 -56 -27 -15 -57 -36 -64 -48 -20 -28 -83 -86 -93 -86 -5 0 -23 -14 -41
-31 -18 -17 -46 -37 -63 -45 -18 -7 -45 -24 -60 -37 -16 -12 -58 -42 -94 -64
-36 -23 -85 -63 -110 -89 -35 -36 -38 -42 -16 -28 23 14 28 15 24 4 -2 -8 -18
-21 -34 -29 -31 -15 -74 -56 -74 -72 0 -5 -6 -9 -14 -9 -23 0 -29 -19 -13 -44
22 -33 90 -101 99 -98 5 1 8 -2 8 -8 0 -13 -11 -12 -32 4 -10 7 -15 16 -11 19
3 4 1 7 -5 7 -7 0 -27 16 -46 36 -29 30 -37 34 -54 25 -11 -6 -26 -24 -33 -40
-7 -16 -16 -28 -20 -26 -3 3 -16 -6 -28 -19 l-23 -24 51 -17 c28 -9 51 -20 51
-24 0 -7 54 -29 91 -36 11 -2 56 -26 98 -52 42 -26 94 -56 116 -66 22 -10 48
-25 58 -34 17 -16 17 -16 11 2 -5 13 -4 16 4 11 7 -4 12 -4 12 -1 0 9 -100
105 -108 105 -4 0 -32 23 -62 51 -30 28 -48 47 -40 41 8 -6 18 -10 21 -9 5 2
25 -14 162 -133 29 -25 82 -70 117 -100 35 -30 74 -64 86 -75 12 -11 39 -36
60 -55 l38 -35 -32 38 c-18 21 -30 41 -28 45 3 4 -29 50 -70 102 -76 98 -99
148 -44 95 17 -16 30 -23 30 -17 0 7 -3 12 -7 12 -9 0 -35 52 -29 57 8 8 67
-87 61 -97 -4 -6 -2 -9 3 -8 5 2 37 -32 71 -76 33 -43 61 -76 61 -73 0 4 18
-13 41 -36 39 -40 44 -35 10 9 -9 11 16 -12 54 -52 82 -84 109 -105 99 -80 -7
17 11 23 21 6 3 -5 12 -10 18 -10 7 0 -7 19 -30 41 -24 22 -43 45 -43 51 0 6
-3 9 -6 5 -4 -3 4 -22 16 -41 12 -20 17 -36 11 -36 -10 0 -24 18 -27 35 -4 23
-24 64 -34 70 -5 3 -7 11 -4 17 4 6 2 8 -4 4 -6 -3 -20 10 -32 31 -22 40 -25
54 -12 52 4 -1 6 -4 5 -8 -1 -4 4 -8 12 -8 10 0 11 5 5 18 -6 9 -13 19 -17 21
-18 8 -143 157 -146 174 -2 11 -9 30 -16 43 -12 22 -15 23 -26 8 -6 -9 -15
-14 -18 -10 -11 10 -8 25 3 18 6 -3 10 -2 10 4 0 18 -19 22 -28 5 -8 -13 -10
-9 -14 21 -4 34 -3 35 10 19 13 -18 14 -17 8 9 -4 17 -3 26 2 23 5 -3 12 -18
15 -34 4 -17 16 -33 32 -40 14 -7 24 -16 20 -21 -3 -5 -1 -12 5 -16 6 -4 8
-10 5 -14 -2 -5 5 -17 18 -27 12 -10 16 -12 10 -4 -7 8 -13 19 -13 24 0 6 8
-1 18 -14 31 -42 138 -137 151 -134 3 1 21 -11 39 -27 37 -33 51 -38 31 -11
-14 18 73 -61 154 -140 49 -48 90 -68 49 -25 -24 25 -29 43 -10 31 7 -4 8 -3
4 4 -4 6 -13 9 -20 6 -8 -3 -17 -1 -21 5 -3 6 -1 11 6 11 7 0 -3 17 -22 37
l-34 37 43 -37 c35 -31 47 -36 70 -31 15 4 28 10 30 14 2 5 12 5 24 2 14 -3
19 -1 14 6 -4 7 -13 12 -20 12 -7 0 -29 15 -48 33 -19 17 -45 40 -59 49 -19
14 -20 16 -4 12 17 -6 -101 122 -260 279 -27 28 -41 45 -30 39 11 -5 55 -44
97 -85 60 -58 83 -75 102 -73 14 2 24 0 23 -4 -3 -11 132 -110 149 -110 4 0
-1 9 -11 20 -10 11 -14 20 -10 20 4 0 0 9 -10 20 -10 11 -27 20 -37 20 -10 0
-21 6 -24 14 -3 8 -11 14 -17 12 -7 -1 -9 -1 -4 1 4 3 5 9 2 14 -4 5 2 6 11 2
12 -5 15 -3 9 6 -9 15 21 1 66 -30 17 -12 30 -15 40 -8 10 6 10 9 2 10 -7 1
-17 2 -22 3 -12 1 -88 56 -78 56 4 0 25 -9 47 -20 51 -26 64 -25 22 1 -18 12
-31 23 -29 26 8 8 74 -24 94 -46 18 -19 21 -20 26 -6 5 11 -12 29 -54 62 -33
26 -55 49 -48 52 6 2 16 -4 21 -13 5 -9 15 -16 23 -16 7 0 15 -4 17 -8 7 -18
77 -52 94 -46 16 5 16 4 4 -5 -13 -9 -13 -11 0 -12 8 -1 19 -1 23 0 5 1 35
-15 68 -35 60 -36 110 -44 54 -8 -17 10 -60 40 -96 66 -37 27 -72 48 -78 48
-6 0 -11 4 -11 10 0 5 7 7 15 4 33 -13 12 17 -22 33 -70 30 -103 48 -103 55 0
3 -10 10 -22 13 -29 9 -108 46 -108 51 0 2 7 1 15 -2 15 -6 48 19 39 29 -3 3
4 3 15 0 18 -5 19 -8 9 -22 -11 -14 -11 -14 2 -5 24 18 146 6 233 -22 27 -9
51 -14 53 -11 3 3 -11 10 -30 17 -20 6 -38 15 -41 20 -3 5 23 -1 58 -14 74
-27 123 -21 59 7 -22 10 -50 28 -63 41 -13 12 -33 26 -43 30 -31 11 -12 16 24
6 18 -5 39 -6 47 -1 11 6 -13 25 -86 71 -55 34 -98 67 -95 72 3 5 -8 13 -25
19 -17 6 -31 15 -31 19 0 15 28 4 83 -32 43 -27 64 -35 94 -33 22 1 54 -5 75
-16 21 -11 43 -19 50 -19 7 0 31 -10 53 -21 28 -15 36 -17 27 -6 -11 13 -3 12
40 -4 83 -32 110 -39 121 -32 6 4 -16 14 -48 24 -33 9 -59 22 -57 28 1 6 -5
11 -14 11 -8 0 -12 -5 -8 -11 3 -6 -5 -3 -20 6 -14 10 -26 21 -26 26 0 4 -19
13 -42 20 -23 6 -53 19 -66 30 -14 10 -30 19 -36 19 -7 0 -21 7 -32 15 -16 13
-13 13 21 -1 22 -9 45 -17 51 -18 7 -1 18 -7 25 -13 19 -14 105 -41 154 -48
29 -4 36 -3 25 4 -8 6 -21 11 -29 11 -14 0 -85 32 -226 102 -88 44 -108 58
-83 58 9 0 19 -4 22 -9 7 -11 96 -42 216 -76 52 -15 115 -33 139 -41 25 -8 49
-14 53 -14 20 0 -20 27 -65 44 -58 22 -57 32 1 12 68 -24 171 -48 184 -43 7 3
-2 8 -20 12 -19 5 -29 11 -23 15 17 10 -23 42 -77 62 -26 9 -39 17 -29 17 29
1 9 20 -49 46 -30 13 -54 26 -54 29 0 6 50 -8 76 -22 22 -11 94 -23 94 -16 0
3 -42 25 -92 49 -51 24 -90 44 -86 45 4 0 52 -18 105 -39 54 -22 114 -42 133
-45 19 -3 36 -10 38 -15 2 -6 15 -11 28 -11 13 0 24 -5 24 -11 0 -5 5 -7 10
-4 6 4 7 11 4 17 -5 8 -1 9 10 5 11 -4 15 -3 11 4 -4 6 -14 8 -22 5 -11 -4
-13 -2 -9 9 3 8 2 14 -2 14 -17 -3 -31 2 -44 14 -7 6 -25 18 -41 26 -16 9 -23
17 -17 21 11 7 -30 40 -50 40 -5 0 -10 5 -10 10 0 7 7 7 21 -1 15 -8 24 -8 32
0 8 8 6 11 -5 11 -9 0 -20 5 -24 12 -4 6 -3 8 3 5 9 -6 48 -15 88 -21 11 -2
20 -4 20 -5 0 -2 11 -5 60 -15 6 -1 15 -5 22 -9 6 -4 14 -3 17 2 4 6 38 -5 79
-23 40 -19 87 -37 105 -41 18 -3 56 -19 86 -35 40 -22 56 -26 65 -17 8 8 11 8
11 -2 0 -7 4 -10 9 -6 5 3 17 -2 25 -11 19 -18 22 -4 4 16 -11 11 -9 11 10 -1
13 -8 23 -18 23 -24 0 -5 8 -18 16 -28 13 -13 18 -14 24 -5 6 9 12 9 27 -2 10
-8 -4 7 -32 33 -28 26 -81 68 -118 93 -38 25 -68 50 -68 55 0 5 -11 9 -24 9
-13 0 -27 7 -30 16 -7 19 11 14 104 -29 36 -16 70 -32 75 -34 6 -3 -6 9 -25
26 -19 17 -30 31 -23 31 17 0 65 -21 88 -40 22 -18 75 -42 75 -35 0 7 -43 57
-120 138 -57 60 -177 157 -195 157 -4 0 -13 7 -21 15 -13 13 -12 15 13 21 17
5 28 3 31 -4 2 -7 11 -12 21 -12 25 0 56 -25 56 -46 0 -11 11 -20 27 -25 29
-8 33 -10 100 -69 26 -23 51 -39 57 -36 5 3 19 -6 31 -21 88 -115 109 -147
143 -212 l38 -73 -2 -156 c-2 -136 -1 -156 15 -167 15 -11 16 -25 10 -116 -3
-57 -7 -110 -9 -119 -2 -8 -8 -51 -14 -95 -7 -44 -14 -95 -17 -112 -4 -26 -10
-33 -28 -33 -21 0 -24 -6 -31 -52 -5 -29 -8 -56 -7 -59 3 -16 -59 -336 -83
-429 -9 -36 -19 -82 -22 -102 -3 -21 -10 -38 -15 -38 -6 0 -7 -7 -4 -16 6 -15
-11 -93 -39 -178 -7 -23 -16 -53 -19 -68 -5 -20 -13 -28 -29 -29 -17 -1 -18
-2 -4 -6 38 -10 14 -23 -43 -23 -56 0 -59 -1 -48 -19 8 -13 23 -18 52 -18 57
1 53 -22 -6 -40 -49 -14 -72 -33 -41 -33 17 -1 17 -1 0 -14 -12 -9 -14 -15 -6
-18 9 -3 7 -11 -5 -31 -20 -30 -92 -47 -130 -29 -24 11 -42 52 -23 52 25 0 -5
12 -63 26 -43 10 -67 11 -80 4 -23 -12 -40 -13 -21 -1 11 7 7 13 -18 25 -17 9
-36 14 -42 11 -5 -4 -8 -1 -7 6 2 6 -10 16 -27 20 -33 9 -108 68 -87 69 6 0
12 -4 12 -10 0 -5 15 -17 33 -26 l32 -16 -35 34 c-19 19 -43 33 -52 32 -11 -2
-15 2 -11 12 5 15 -41 38 -61 30 -7 -3 -6 -5 2 -5 18 -1 14 -63 -6 -87 -9 -12
-43 -32 -74 -44 -57 -23 -77 -41 -24 -20 29 11 53 13 44 5 -6 -7 -357 -136
-383 -141 -11 -3 -2 4 20 15 22 11 36 20 30 20 -15 1 -106 -28 -119 -37 -6 -5
-51 -21 -100 -36 -102 -31 -118 -30 -376 21 -154 31 -168 33 -203 16 -22 -11
-25 -17 -18 -31 7 -14 5 -21 -10 -30 -15 -10 -42 -8 -135 9 -98 19 -117 20
-124 8 -7 -11 -12 -11 -21 -2 -7 7 -24 9 -39 6 -23 -4 -33 2 -60 36 -30 37
-34 39 -46 23 -12 -16 -15 -16 -44 1 -34 18 -65 23 -56 8 3 -5 -20 -1 -52 9
-32 10 -75 21 -96 24 -22 4 -65 14 -95 23 -31 9 -69 16 -86 15 -20 -2 -26 1
-16 7 23 15 -5 22 -32 8 l-24 -13 64 -144 c35 -80 68 -149 74 -155 5 -5 -9 33
-32 85 -36 84 -63 170 -53 170 2 0 14 -10 25 -21 16 -16 23 -18 29 -9 6 9 10
6 15 -9 3 -11 10 -21 15 -21 5 0 11 -8 13 -17 3 -10 5 -1 6 21 l1 38 38 -6
c62 -11 159 -46 194 -69 47 -32 75 -79 107 -181 l28 -91 13 58 c7 32 17 60 22
63 23 14 56 -18 127 -125 91 -135 128 -171 226 -218 171 -81 373 -81 429 -1
16 23 22 63 9 55 -5 -3 -6 15 -4 39 2 27 -1 44 -8 44 -14 0 -14 37 0 46 6 3
17 20 24 36 9 23 28 37 76 59 35 15 65 24 67 19 2 -5 49 10 105 34 56 23 172
68 257 100 85 32 180 69 210 81 81 35 283 105 288 101 2 -2 -5 -7 -16 -10 -12
-4 -21 -18 -24 -36 -2 -16 -1 -27 3 -24 10 6 30 -31 34 -62 3 -33 -11 -21 -18
16 -4 16 -13 30 -21 30 -7 0 -16 9 -19 20 -3 11 -1 18 4 14 5 -3 9 0 9 5 0 6
-7 11 -15 11 -19 0 -19 -18 -1 -62 15 -35 15 -49 2 -80 -5 -10 2 -35 18 -65
14 -26 25 -41 26 -33 0 10 5 7 15 -8 29 -41 86 -43 202 -7 l21 7 -22 -74 c-13
-40 -27 -89 -32 -108 -15 -55 -37 -49 -84 24 -24 37 -44 66 -45 66 -5 0 25
-82 41 -111 8 -16 14 -32 13 -35 -2 -8 21 -42 45 -65 10 -9 15 -22 12 -28 -22
-35 42 -233 93 -291 23 -26 23 -29 -4 -125 -8 -27 -17 -63 -20 -80 -5 -20 -46
-69 -133 -155 -247 -245 -591 -470 -962 -628 -243 -104 -355 -106 -495 -8 -35
25 -47 38 -80 88 -22 34 -36 69 -79 212 l-12 40 -140 43 c-446 140 -660 219
-916 342 -131 63 -149 74 -162 104 -13 32 -21 36 -121 68 l-106 34 -84 112
c-177 236 -279 361 -372 455 -97 99 -142 132 -225 163 -76 28 -125 120 -83
155 10 8 13 21 9 33 -5 17 -3 19 17 13 65 -20 69 -20 69 7 0 26 -53 71 -132
111 -37 19 -53 40 -42 57 10 16 76 -3 131 -38 28 -18 56 -33 60 -33 4 0 -23
30 -62 66 -66 63 -69 67 -47 75 12 5 30 6 40 4 9 -3 -10 8 -44 24 -81 39 -94
56 -67 83 30 29 13 64 -38 80 -21 6 -48 20 -59 30 -11 10 -48 33 -83 51 -44
23 -66 41 -77 64 -8 17 -55 75 -105 129 -185 199 -224 262 -289 460 -54 162
-152 352 -238 459 -40 50 -170 187 -289 305 -163 162 -218 223 -223 246 -4 18
-15 39 -25 48 -23 21 -187 96 -210 96 -10 0 -59 23 -109 51 -126 70 -191 91
-293 97 -71 4 -102 0 -175 -21 -49 -14 -136 -30 -194 -37 -119 -13 -175 -30
-241 -71 -25 -16 -53 -29 -61 -29 -8 0 -35 -14 -58 -31 -24 -18 -69 -43 -99
-57 -82 -37 -198 -129 -343 -272 -70 -69 -168 -163 -216 -210 -64 -62 -98
-104 -124 -155 -72 -140 -107 -312 -112 -546 -2 -96 -7 -154 -14 -161 -9 -9
-32 -2 -93 30 -87 45 -204 80 -310 92 -51 6 -78 15 -115 41 -27 18 -91 52
-144 75 -93 40 -228 117 -242 138 -4 6 -5 36 -1 67 8 77 -27 156 -86 193 -23
15 -41 34 -41 44 0 34 -29 62 -65 62 -25 0 -39 6 -49 23 -18 28 -58 156 -51
167 2 4 -8 34 -24 66 -38 78 -87 202 -95 240 -4 17 -25 52 -47 79 -47 57 -64
87 -74 133 -4 22 -21 43 -52 67 -25 19 -50 35 -55 35 -6 0 -23 9 -39 21 -18
13 -36 18 -49 14 -19 -6 -35 -2 -150 36 -30 10 -84 23 -120 30 -35 6 -73 15
-84 21 -10 6 -46 14 -80 18 -34 4 -77 11 -96 14 -19 4 -42 2 -50 -4z m-1785
-1341 c-21 -62 -16 -122 21 -253 32 -111 29 -159 -15 -334 -17 -68 -31 -138
-31 -157 0 -39 -37 -165 -49 -165 -5 0 -11 -19 -15 -42 -22 -160 -52 -228 -97
-228 -10 0 -33 -10 -53 -22 -34 -22 -35 -25 -36 -83 0 -34 6 -85 14 -115 8
-30 19 -102 26 -160 6 -58 29 -179 51 -270 21 -91 43 -184 49 -207 16 -70 24
-183 12 -183 -30 0 -103 124 -198 338 -36 82 -37 87 -38 210 0 70 1 172 3 227
l3 100 -66 197 c-91 272 -95 318 -26 318 32 0 57 22 122 108 27 34 55 62 63
62 8 0 17 14 20 34 4 19 20 47 37 63 39 37 61 80 60 118 -1 16 8 77 19 135 16
81 20 122 14 182 l-6 78 63 63 c69 70 79 67 53 -14z m-186 -78 c22 -14 10
-193 -18 -256 -65 -144 -68 -148 -88 -122 -10 12 -17 38 -49 171 -20 82 -11
111 38 124 26 6 35 15 42 43 13 47 40 62 75 40z m12427 -393 c-3 -18 -10 -71
-16 -118 -21 -170 -114 -500 -141 -500 -18 0 -8 58 57 339 76 335 69 311 89
311 12 0 15 -7 11 -32z m-7076 -278 c11 -11 20 -29 20 -39 0 -11 -9 -23 -20
-26 -11 -4 -20 -15 -20 -26 0 -29 -43 -69 -68 -63 -21 6 -42 43 -42 72 1 29
25 62 60 82 44 24 46 24 70 0z m-498 -76 c4 -3 10 -21 14 -42 9 -52 57 -155
98 -211 43 -59 93 -94 169 -120 55 -19 63 -19 133 -6 113 21 116 18 78 -90
-36 -102 -38 -106 -123 -216 -18 -24 -25 -26 -56 -19 -20 4 -41 12 -48 18 -7
5 -37 20 -67 33 -75 31 -110 56 -190 133 -38 36 -73 66 -77 66 -4 0 -28 18
-51 40 -24 22 -48 40 -52 40 -15 0 -70 87 -70 109 0 26 8 26 40 0 14 -11 38
-29 54 -41 l29 -22 -7 28 c-4 15 -4 32 0 38 10 15 11 139 2 144 -15 10 -47 86
-41 100 3 8 15 16 27 19 11 2 30 6 41 9 20 4 84 -2 97 -10z m-1936 -459 c10
-8 29 -15 42 -15 31 0 59 -16 100 -56 l35 -34 -33 -77 c-48 -111 -65 -133
-102 -133 -31 0 -68 -24 -68 -43 0 -6 -6 -18 -14 -26 -21 -25 -26 -64 -10 -85
8 -11 14 -30 14 -42 0 -13 4 -25 8 -28 20 -12 52 36 52 78 0 30 9 56 20 56 18
0 20 -40 4 -77 -9 -21 -19 -47 -21 -57 -15 -80 -36 -152 -52 -185 -11 -21 -22
-49 -24 -62 -6 -37 -25 -77 -46 -100 l-19 -21 -7 31 c-5 22 -12 31 -27 31 -21
0 -22 15 -7 97 1 4 1 45 0 90 -1 71 -3 82 -17 76 -24 -9 -33 14 -23 58 5 21 8
42 7 46 0 5 1 15 5 23 18 48 14 85 -14 118 -32 36 -40 78 -13 68 9 -3 27 -9
42 -13 22 -5 24 -4 17 13 -16 38 -11 59 13 58 18 0 22 5 22 27 0 15 5 31 10
34 16 10 12 17 -35 69 -63 69 -62 80 6 45 55 -28 75 -23 71 19 -3 28 -1 32 20
32 13 0 33 -7 44 -15z m7259 -121 c116 -23 121 -26 128 -71 7 -41 71 -128 88
-117 5 3 9 -1 9 -8 0 -9 3 -9 10 2 7 11 10 12 10 2 0 -10 4 -10 16 2 19 19 28
21 19 4 -4 -7 0 -5 8 4 9 11 21 15 37 11 20 -5 22 -3 17 17 -10 39 10 8 33
-50 12 -30 28 -85 35 -122 16 -88 7 -103 -62 -101 -164 5 -243 13 -281 26
-118 44 -212 152 -271 310 -24 65 -27 103 -8 111 17 8 118 -2 212 -20z m-5011
-491 c2 -10 7 -48 11 -85 3 -36 12 -73 18 -81 14 -17 111 -29 126 -14 13 13
33 -1 29 -21 -1 -10 6 -30 17 -46 19 -29 14 -51 -16 -68 -100 -55 -268 -108
-340 -108 -56 0 -69 25 -69 127 0 75 -8 100 -25 74 -3 -6 -14 -52 -25 -103
-21 -98 -47 -138 -92 -138 -18 0 -20 4 -14 38 3 20 19 71 35 112 25 65 34 78
70 98 l41 24 -6 48 c-10 79 13 160 29 100 7 -28 27 -25 27 4 0 34 18 44 85 49
33 2 68 4 77 5 9 1 19 -6 22 -15z m716 -303 c5 0 12 9 15 20 3 11 10 20 15 20
10 0 51 -51 72 -90 52 -94 55 -97 110 -98 71 -1 81 -16 72 -107 l-6 -70 22 20
c12 11 35 45 50 75 48 94 69 108 154 101 24 -2 28 0 21 16 -17 41 -18 63 -1
63 23 0 37 -43 43 -131 4 -72 2 -85 -58 -265 -34 -104 -68 -198 -75 -209 -16
-25 -74 -188 -74 -209 0 -8 -31 -107 -69 -218 -75 -221 -180 -545 -236 -730
-20 -65 -39 -118 -44 -118 -16 0 -71 119 -77 167 -4 26 -14 59 -23 73 -23 35
-21 436 2 595 9 61 21 171 27 245 18 225 35 315 77 399 43 85 65 105 86 77 17
-23 80 -19 85 6 4 22 -94 95 -161 119 -99 36 -127 133 -74 252 21 46 22 46 30
22 5 -14 12 -25 17 -25z m6500 27 c0 -6 -5 -28 -10 -47 -12 -42 -49 -242 -60
-325 -4 -33 -15 -93 -23 -133 -9 -40 -19 -101 -23 -135 -4 -34 -8 -67 -8 -73
-1 -7 -7 -18 -14 -26 -6 -8 -15 -29 -18 -46 -7 -36 -18 -41 -32 -15 -7 12 -10
0 -10 -43 1 -118 -14 -166 -71 -238 -17 -21 -31 -45 -31 -52 0 -7 -9 -18 -20
-24 -11 -6 -20 -17 -20 -25 0 -8 -6 -15 -13 -15 -8 0 -19 -11 -25 -25 -7 -14
-34 -46 -62 -72 -27 -25 -48 -49 -45 -52 2 -4 -9 -15 -26 -25 -16 -9 -29 -21
-29 -26 0 -5 -7 -7 -16 -3 -8 3 -26 0 -40 -7 -13 -8 -27 -10 -31 -6 -5 4 -8
71 -7 149 1 90 -2 124 -6 92 -7 -48 -7 -48 -7 -10 -1 22 2 65 7 95 l7 55 3
-45 c1 -25 12 61 25 190 12 129 25 262 28 295 4 41 3 49 -2 25 -14 -60 -12 2
3 75 16 79 25 107 35 101 4 -3 14 16 24 42 12 33 43 74 104 138 101 105 133
144 133 161 0 15 22 20 121 27 41 3 91 12 110 20 42 19 49 19 49 3z m-600
-431 c-40 -116 -87 -469 -77 -571 4 -35 3 -43 -3 -25 -5 15 -8 -55 -7 -182 2
-191 -3 -240 -21 -211 -4 6 -22 14 -39 18 -18 3 -33 11 -33 16 0 6 -4 7 -10 4
-5 -3 -10 2 -10 11 0 10 -3 15 -6 12 -9 -10 -85 73 -78 84 4 7 2 8 -5 4 -6 -4
-14 0 -17 11 -9 27 -27 64 -51 103 -12 19 -21 38 -20 41 1 4 -5 15 -13 25 -20
26 -40 62 -40 74 0 15 -42 60 -57 60 -7 0 -13 7 -13 15 0 9 -9 25 -20 37 -11
12 -20 28 -20 35 0 19 -58 16 -125 -7 -32 -11 -59 -19 -61 -17 -1 1 45 29 103
62 146 82 297 182 423 278 58 44 111 80 118 80 6 0 31 24 53 54 23 29 43 52
45 50 2 -2 -5 -30 -16 -61z m-11446 -224 c204 -172 352 -280 340 -249 -9 25
46 8 106 -33 119 -81 157 -117 176 -167 23 -63 35 -76 186 -199 183 -148 310
-241 333 -242 97 -4 117 -11 197 -63 83 -54 221 -153 246 -176 7 -7 18 -13 24
-13 6 0 71 32 144 70 73 39 142 70 154 70 24 0 72 -23 115 -55 17 -12 53 -29
80 -38 28 -8 100 -36 160 -62 151 -64 157 -65 202 -50 59 22 79 18 107 -18 68
-88 206 -507 206 -623 0 -50 -2 -55 -31 -69 -16 -9 -29 -22 -27 -28 4 -13 232
-189 776 -598 182 -138 335 -256 339 -262 11 -18 -33 -44 -96 -56 -33 -7 -174
-16 -313 -21 -224 -7 -271 -12 -407 -40 -84 -17 -157 -28 -162 -23 -7 7 -190
441 -327 778 -80 194 -103 239 -126 243 -22 5 -50 25 -231 167 -70 55 -139
109 -154 120 -14 10 -75 60 -136 110 -60 50 -133 109 -162 131 -47 36 -472
377 -518 416 -56 48 -337 273 -540 435 -126 100 -282 225 -345 277 -175 144
-297 236 -304 229 -3 -4 -6 -1 -6 6 0 7 -4 9 -10 6 -5 -3 -10 -1 -10 5 0 6 -5
8 -12 4 -6 -4 -8 -3 -4 4 10 16 -44 55 -59 42 -7 -6 -21 -8 -31 -4 -16 5 -16
4 -4 -5 13 -10 13 -12 1 -20 -12 -8 -12 -12 -2 -25 12 -14 10 -16 -8 -16 -11
0 -21 5 -21 10 0 6 -8 10 -17 8 -22 -4 -28 22 -11 45 10 14 73 44 97 47 2 0
40 -31 85 -68z m-1924 -426 c0 -6 15 -24 33 -40 121 -105 171 -163 199 -229
16 -37 26 -72 23 -76 -3 -5 1 -11 7 -14 7 -2 10 -8 5 -12 -4 -5 -16 1 -27 12
-14 15 -16 23 -7 26 7 3 4 6 -5 6 -11 1 -18 9 -18 20 0 11 -4 23 -10 26 -5 3
-10 1 -10 -5 0 -6 -5 -8 -10 -5 -6 4 -8 11 -5 16 4 5 2 9 -4 9 -6 0 -8 8 -5
18 5 14 3 14 -10 -2 -15 -19 -16 -19 -16 12 0 34 -35 81 -43 59 -3 -7 -9 0
-15 14 -6 15 -17 29 -25 32 -10 4 -14 14 -10 29 4 18 3 20 -6 8 -9 -13 -12
-12 -25 5 -9 11 -16 28 -16 38 0 20 -23 47 -39 47 -6 0 -11 5 -11 11 0 5 5 7
10 4 6 -3 10 -2 10 4 0 6 7 8 15 5 8 -4 15 -11 15 -18z m1740 -750 c6 -6 10
-16 10 -23 0 -8 28 -73 63 -146 155 -322 206 -442 208 -489 2 -26 1 -50 -2
-52 -3 -3 -20 31 -38 77 -18 45 -42 100 -52 122 -17 38 -209 492 -270 640 -16
39 -29 72 -28 75 0 3 23 -40 50 -95 27 -55 54 -104 59 -109z m-1562 -38 c15
-15 16 -58 2 -58 -5 0 -10 -5 -10 -11 0 -6 6 -9 14 -6 8 3 20 0 28 -6 8 -7 61
-107 118 -224 83 -170 101 -215 91 -227 -6 -8 -35 -22 -64 -31 -29 -9 -70 -26
-91 -36 -77 -37 -88 -25 -126 133 -11 46 -33 140 -50 210 -25 99 -29 131 -20
148 7 13 7 20 1 20 -16 0 -33 39 -26 59 4 13 21 22 53 29 65 13 67 13 80 0z
m7312 -603 c18 -19 31 -38 27 -41 -3 -3 -44 -19 -91 -35 -176 -59 -394 -186
-528 -309 -52 -47 -68 -68 -68 -89 0 -28 -19 -54 -127 -175 -29 -33 -62 -79
-74 -103 -19 -39 -93 -123 -109 -123 -3 0 -12 5 -20 10 -13 8 -9 20 23 80 20
38 37 72 37 75 0 3 -8 5 -19 5 -10 0 -24 7 -32 16 -25 31 63 172 185 297 20
20 66 51 102 68 36 16 101 61 144 98 44 38 95 72 117 79 50 15 202 90 283 141
81 50 106 51 150 6z m-3160 -169 c0 -19 -44 -46 -75 -46 -18 0 -25 -5 -25 -20
0 -14 -5 -18 -17 -13 -11 4 -14 3 -9 -5 4 -8 -3 -16 -21 -23 -26 -10 -27 -12
-8 -19 18 -7 19 -8 2 -15 -9 -4 -30 -2 -45 4 -35 14 -72 4 -165 -47 -40 -22
-108 -59 -152 -82 -44 -24 -89 -49 -100 -57 -25 -17 -35 -17 -35 2 0 7 30 31
68 51 37 20 117 66 179 101 61 34 117 63 123 63 6 0 48 19 93 42 45 23 98 50
117 60 42 21 70 23 70 4z m1913 -169 c-11 -17 -53 -77 -94 -133 -41 -55 -89
-122 -106 -147 -18 -26 -37 -47 -42 -47 -5 0 -18 18 -30 40 l-20 39 44 31 c24
17 65 59 89 94 53 74 138 156 162 156 14 0 14 -3 -3 -33z m-386 -722 c73 -44
68 -47 -127 -70 -74 -9 -173 -23 -220 -31 -131 -23 -369 -53 -477 -60 -101 -7
-133 -16 -133 -37 0 -7 -5 -30 -11 -51 l-11 -40 -34 69 c-40 81 -41 91 -11 99
176 50 291 62 757 80 69 3 164 31 195 58 14 13 25 10 72 -17z m-4059 -414 c38
-19 130 -126 119 -137 -10 -10 -230 -74 -235 -69 -6 5 17 210 25 232 5 13 26
7 91 -26z m8508 -607 c-3 -9 -9 -26 -12 -37 -3 -12 -42 -47 -88 -79 -45 -32
-131 -106 -192 -164 -60 -58 -94 -94 -76 -80 38 30 61 35 41 9 -21 -27 -167
-189 -222 -247 -40 -42 -47 -47 -42 -26 4 14 20 45 36 70 l30 45 -54 -56 c-56
-59 -110 -128 -89 -115 19 12 14 -13 -9 -46 -15 -20 -24 -26 -29 -18 -7 11
-42 -38 -92 -129 -17 -31 -38 -42 -38 -20 0 6 16 37 35 69 40 66 43 85 15 100
-11 6 -20 15 -20 20 0 15 110 172 173 245 137 161 226 231 512 407 116 71 131
78 121 52z m-8902 -106 c5 -10 7 -10 12 0 8 17 34 -3 34 -27 0 -14 2 -14 10
-1 8 12 10 12 11 -5 0 -11 1 -37 2 -58 1 -20 -2 -39 -8 -42 -5 -3 11 -3 38 0
38 4 47 2 47 -11 0 -13 3 -14 14 -5 17 15 46 -10 46 -40 0 -11 7 -19 18 -19
31 -1 -120 -90 -187 -111 -72 -22 -111 -20 -171 11 -45 23 -132 99 -125 110 3
5 1 10 -5 12 -5 1 -19 27 -29 57 l-20 53 24 -4 c16 -3 22 -1 18 8 -2 7 5 17
16 24 12 6 21 7 21 3 0 -4 5 -1 10 7 5 8 10 10 10 4 0 -6 -3 -14 -7 -18 -4 -4
-8 -22 -9 -39 -1 -18 1 -26 3 -19 4 9 9 10 18 2 9 -8 14 -6 19 5 6 18 37 20
53 4 6 -6 17 -8 23 -4 9 6 8 10 -4 17 -16 9 -16 11 1 24 24 18 34 18 27 -1 -5
-11 -2 -13 10 -9 8 3 15 9 14 12 -2 21 4 31 17 26 10 -4 15 0 15 13 0 32 23
45 34 21z m1151 -47 c9 -16 -3 -18 -240 -37 -38 -3 -88 -10 -110 -15 -22 -6
-48 -11 -58 -12 -10 -1 -15 -7 -13 -14 3 -7 -3 -17 -14 -23 -24 -13 -60 -13
-60 -1 0 6 -16 7 -36 4 -56 -9 -39 17 27 39 76 26 203 45 343 52 66 3 122 8
124 11 9 8 30 6 37 -4z m-577 -115 c23 -12 23 -13 -25 -31 -54 -20 -188 -89
-260 -134 -30 -19 -51 -27 -57 -21 -19 19 57 73 213 152 52 26 97 48 100 48 3
-1 17 -7 29 -14z m10096 -23 c8 -16 31 -46 50 -68 20 -22 36 -45 36 -51 0 -6
-51 -25 -112 -43 -62 -18 -121 -35 -130 -38 -10 -3 -18 -1 -18 5 0 11 84 54
146 75 21 6 39 19 41 27 4 13 3 13 -7 0 -8 -10 -13 -11 -16 -4 -5 13 -75 -9
-104 -32 -8 -6 -25 -15 -36 -18 -12 -4 -32 -15 -44 -26 -13 -11 -28 -20 -34
-20 -6 0 -4 5 4 11 11 8 6 9 -20 4 -19 -3 -48 -7 -65 -8 -18 -1 -33 -9 -37
-19 -5 -12 -18 -18 -38 -18 -20 0 -30 -5 -30 -15 0 -8 -9 -15 -20 -15 -11 0
-20 -4 -20 -9 0 -10 -72 -41 -95 -41 -27 0 -5 59 63 169 l28 45 219 57 c121
31 221 58 222 58 1 1 9 -11 17 -26z"/>
<path d="M14130 8156 c0 -11 -5 -16 -14 -13 -11 4 -16 -5 -21 -36 -13 -90 -16
-96 -33 -90 -9 3 -14 3 -10 -2 4 -4 1 -13 -8 -19 -8 -6 -17 -27 -19 -45 -3
-19 -10 -38 -17 -42 -8 -5 -12 -27 -11 -59 1 -27 -2 -50 -7 -50 -6 0 -10 -7
-10 -16 0 -8 5 -12 10 -9 14 9 13 -28 -2 -43 -9 -9 -9 -18 0 -37 7 -15 8 -24
3 -20 -6 3 -9 -4 -8 -15 1 -11 7 -20 14 -20 20 0 26 -21 11 -37 -28 -27 8
-168 78 -305 36 -71 44 -52 44 112 0 89 7 167 19 230 10 52 16 100 14 107 -3
7 -1 13 4 13 5 0 16 13 26 29 16 28 62 47 73 29 9 -14 24 1 17 18 -5 13 -1 15
17 9 13 -4 20 -3 17 2 -7 11 123 11 141 0 17 -12 32 1 25 21 -4 9 5 4 19 -13
25 -27 28 -29 43 -14 15 14 15 17 -2 30 -16 13 -17 12 -4 -3 7 -10 10 -18 5
-18 -5 0 -44 38 -87 85 -43 47 -83 83 -88 80 -5 -4 -9 -2 -9 4 0 12 -85 94
-108 103 -41 16 -59 21 -82 25 -13 2 -28 10 -32 16 -5 8 -8 6 -8 -7z"/>
<path d="M3740 7939 c-14 -6 -63 -22 -110 -35 -48 -14 -92 -33 -102 -44 -19
-24 -26 -24 -64 -6 -16 8 -40 17 -53 21 l-25 8 25 -29 c28 -34 104 -104 112
-104 3 0 7 12 9 27 2 20 11 29 33 35 63 18 93 12 151 -32 60 -45 111 -67 124
-54 16 19 60 105 60 120 0 12 -6 15 -26 10 -15 -4 -39 -4 -55 -1 -36 8 -39 44
-7 75 l22 20 -35 -1 c-19 0 -45 -5 -59 -10z"/>
<path d="M6990 7861 c-19 -10 -68 -26 -108 -36 -75 -18 -131 -53 -118 -73 4
-6 22 -14 41 -18 61 -11 269 105 249 138 -8 12 -25 9 -64 -11z"/>
<path d="M6146 7685 c-27 -7 -62 -11 -77 -8 -65 10 -102 -56 -61 -107 15 -19
22 -21 39 -11 26 13 44 7 61 -19 10 -16 9 -23 -5 -40 -10 -11 -25 -20 -35 -20
-24 0 -30 -16 -12 -31 9 -7 26 -33 39 -58 13 -26 37 -54 55 -65 74 -43 87 -81
49 -143 -12 -19 -18 -37 -15 -40 6 -7 50 22 99 66 26 24 27 25 10 50 -9 14
-38 52 -65 84 -34 41 -48 67 -48 88 0 28 2 30 33 28 44 -3 95 9 140 34 37 21
45 36 45 88 0 29 7 30 -100 -6 -46 -15 -62 -16 -83 -7 -14 6 -25 19 -25 27 0
17 84 61 138 71 17 3 32 10 32 14 0 23 -137 26 -214 5z"/>
<path d="M3680 7416 c0 -12 12 -33 26 -45 22 -19 30 -21 56 -12 21 7 36 7 49
0 27 -14 14 -29 -26 -29 -26 0 -33 -3 -29 -15 7 -16 50 -21 56 -6 2 5 21 3 43
-5 40 -14 108 -11 136 7 11 7 7 15 -21 36 -35 28 -62 37 -160 51 -30 5 -66 14
-80 22 -38 21 -50 20 -50 -4z"/>
<path d="M14073 6922 c-2 -10 -48 -41 -108 -72 -58 -30 -105 -60 -105 -66 0
-13 23 -24 51 -24 10 0 19 -6 19 -14 0 -7 10 -13 23 -12 18 1 21 6 19 29 -1
15 2 27 7 27 12 0 24 -36 17 -49 -3 -5 13 -13 37 -19 36 -10 46 -8 77 9 l34
21 28 -31 c15 -17 36 -31 47 -31 11 0 21 -4 23 -10 4 -13 48 0 48 15 0 6 -17
28 -37 47 -21 20 -47 48 -58 64 -11 15 -32 42 -46 59 -14 16 -31 40 -38 53
-14 27 -31 29 -38 4z"/>
<path d="M14030 6434 c0 -4 10 -19 23 -33 l22 -25 -35 24 c-19 13 -29 17 -22
10 18 -21 15 -34 -5 -19 -16 13 -17 12 -5 -3 8 -9 19 -15 27 -12 7 3 16 1 20
-5 4 -7 -1 -8 -12 -4 -17 6 -16 5 1 -16 11 -12 26 -19 33 -17 7 3 36 -6 65
-19 29 -13 46 -24 38 -25 -9 0 -6 -6 10 -15 30 -17 11 -19 -42 -5 -39 11 -119
70 -170 124 l-29 31 15 -31 c19 -40 74 -88 134 -118 57 -28 175 -58 196 -50
19 7 21 34 3 34 -7 0 -18 12 -24 28 -10 25 -11 25 -12 5 -2 -38 -24 -26 -100
52 -40 41 -76 75 -79 75 -3 0 -1 -5 6 -12 7 -7 12 -16 12 -20 0 -7 -25 10 -56
40 -8 7 -14 10 -14 6z"/>
<path d="M15236 1385 c-4 -14 -18 -31 -31 -37 -29 -13 -29 -13 -51 -143 -22
-131 -21 -152 10 -184 14 -15 26 -36 26 -47 0 -11 10 -30 23 -42 32 -30 43
-28 18 4 -12 15 -21 34 -21 43 0 9 -9 31 -20 49 -30 49 -25 86 28 218 36 89
47 126 41 142 -11 28 -15 28 -23 -3z"/>
</g>
</svg>
